<svg xmlns="http://www.w3.org/2000/svg" xmlns:xlink="http://www.w3.org/1999/xlink" width="270px" height="478px" viewBox="0 0 270 478" version="1.1">
    <!-- Generator: Sketch 3.8.3 (29802) - http://www.bohemiancoding.com/sketch -->
    <title>Android_text</title>
    <desc>Created with Sketch.</desc>
    <defs>
        <polygon id="path-1" points="0.526964071 0 268.779411 0 268.779411 41.7382261 0.526964071 41.7382261"/>
        <filter x="-50%" y="-50%" width="200%" height="200%" filterUnits="objectBoundingBox" id="filter-2">
            <feOffset dx="0" dy="4" in="SourceAlpha" result="shadowOffsetOuter1"/>
            <feGaussianBlur stdDeviation="2" in="shadowOffsetOuter1" result="shadowBlurOuter1"/>
            <feColorMatrix values="0 0 0 0 0   0 0 0 0 0   0 0 0 0 0  0 0 0 0.2 0" type="matrix" in="shadowBlurOuter1"/>
        </filter>
    </defs>
    <g id="Page-1" stroke="none" stroke-width="1" fill="none" fill-rule="evenodd">
        <g id="Android_text">
            <g id="sms_3">
                <polygon id="Background" fill="#ffffff" points="0.745145687 0 268.997593 0 268.997593 477.008299 0.745145687 477.008299"/>
                <g id="nav_bar" transform="translate(0.745146, 441.232676)">
                    <polygon id="nav_bckgr" fill="#030303" points="268.252447 0 268.252447 35.7756224 -2.84217094e-14 35.7756224 -2.84217094e-14 0"/>
                    <path d="M214.005841,23.8504149 L203.350258,23.8504149 C202.977685,23.8504149 202.754141,23.5522848 202.754141,23.2541546 L202.754141,12.5960004 C202.754141,12.2233377 203.0522,11.99974 203.350258,11.99974 L214.005841,11.99974 C214.378414,11.99974 214.601958,12.2978702 214.601958,12.5960004 L214.601958,23.2541546 C214.601958,23.5522848 214.303899,23.8504149 214.005841,23.8504149 L214.005841,23.8504149 Z M203.946374,22.5833616 L213.33521,22.5833616 L213.33521,13.1922608 L203.946374,13.1922608 L203.946374,22.5833616 L203.946374,22.5833616 Z" id="Shape" fill="#FFFFFF"/>
                    <path d="M134.126224,24.5957404 C130.400495,24.5957404 127.419912,21.6144385 127.419912,17.8878112 C127.419912,14.1611839 130.400495,11.179882 134.126224,11.179882 C137.851952,11.179882 140.832535,14.1611839 140.832535,17.8878112 C140.832535,21.6144385 137.851952,24.5957404 134.126224,24.5957404 L134.126224,24.5957404 Z M134.126224,12.4469353 C131.145641,12.4469353 128.68666,14.9065093 128.68666,17.8878112 C128.68666,20.8691131 131.145641,23.3286871 134.126224,23.3286871 C137.106806,23.3286871 139.565787,20.8691131 139.565787,17.8878112 C139.565787,14.9065093 137.106806,12.4469353 134.126224,12.4469353 L134.126224,12.4469353 Z" id="Shape" fill="#FFFFFF"/>
                    <path d="M65.5728204,11.0308169 L65.5728204,23.99948 C65.5728204,24.2230777 65.4983059,24.3721428 65.2747622,24.5212079 C65.125733,24.5957404 64.9021893,24.5957404 64.7531602,24.5212079 L53.8740331,18.0368763 C53.5759749,17.8132787 53.5759749,17.2915508 53.8740331,17.0679532 L64.7531602,10.5836216 C64.9021893,10.5090891 65.125733,10.5090891 65.2747622,10.5836216 C65.4983059,10.5836216 65.5728204,10.8072193 65.5728204,11.0308169 L65.5728204,11.0308169 Z M64.5296165,23.0305569 L64.5296165,11.99974 L55.28981,17.5151485 L64.5296165,23.0305569 L64.5296165,23.0305569 Z" id="Shape" fill="#FFFFFF"/>
                </g>
                <g id="Status_bar" transform="translate(0.745146, 0.000000)">
                    <polygon id="bg" fill="#FFFFFF" points="268.252447 0 268.252447 18.6331367 -2.84217094e-14 18.6331367 -2.84217094e-14 0"/>
                    <path d="M181.442975,4.84461553 C178.685936,4.84461553 176.375984,7.08059193 176.375984,9.83829616 C176.375984,12.5960004 178.685936,14.8319768 181.442975,14.8319768 C184.274528,14.8319768 186.509965,12.5960004 186.509965,9.83829616 C186.509965,7.08059193 184.274528,4.84461553 181.442975,4.84461553 L181.442975,4.84461553 Z M181.442975,13.639456 C179.356567,13.639456 177.642732,11.99974 177.642732,9.91282871 C177.642732,7.8259174 179.356567,6.18620137 181.442975,6.18620137 C183.529383,6.18620137 185.243218,7.8259174 185.243218,9.91282871 C185.243218,11.9252075 183.529383,13.639456 181.442975,13.639456 Z M181.815548,6.33526647 L180.772344,6.33526647 L180.5488,9.83829616 L180.5488,9.91282871 L180.623314,10.360024 L183.305839,12.7450655 L184.050985,11.99974 L181.890062,9.68923107 L181.815548,6.33526647 Z M186.435451,7.90044995 L186.509965,8.12404759 L187.776713,7.67685231 L187.702198,7.45325467 C187.031567,5.88807119 185.839334,4.54648535 184.200014,3.87569243 L183.97647,3.72662733 L183.529383,4.99368063 L183.752926,5.06821317 C184.945159,5.66447355 185.913849,6.63339665 186.435451,7.90044995 Z M179.207538,5.06821317 L179.431081,4.99368063 L178.983994,3.72662733 L178.76045,3.87569243 C177.195644,4.62101789 175.854382,5.96260373 175.258266,7.52778721 L175.183751,7.75138485 L176.450499,8.19858013 L176.525013,7.97498249 C176.972101,6.7079292 177.94079,5.66447355 179.207538,5.06821317 Z" id="clock_icon" fill="#030303"/>
                    <polygon id="signal" fill="#030303" points="217.582541 3.72662733 217.582541 14.9065093 205.66021 14.9065093"/>
                    <path d="M191.523974,6.25916756 L198.581326,14.9065093 L205.638677,6.25916756 C205.638677,6.25916756 199.110627,0.523685775 191.523974,6.25916756 L191.523974,6.25916756 Z" id="wifi_ico" fill="#030303"/>
                    <g id="battery_icon" transform="translate(223.543706, 3.726627)" fill="#030303">
                        <path d="M4.9924761,1.1179882 L4.9924761,0 L1.93737879,0 L1.93737879,1.1179882 L0.223543706,1.1179882 L0.223543706,11.179882 L6.63179661,11.179882 L6.63179661,1.1179882 L4.9924761,1.1179882 L4.9924761,1.1179882 Z M2.3844662,9.98736126 L3.12961188,6.85699429 L1.78834965,6.85699429 L2.75703904,2.90676932 L5.29053438,2.90676932 L4.32184498,5.589941 L5.81213636,5.589941 L2.3844662,9.98736126 L2.3844662,9.98736126 Z" id="Shape" opacity="0.5"/>
                        <polygon id="Shape" points="6.70631118 6.26073392 6.70631118 11.179882 0.223543706 11.179882 0.223543706 6.26073392 1.86286422 6.26073392 1.78834965 6.85699429 3.12961188 6.85699429 2.3844662 9.98736126 5.21601981 6.26073392"/>
                    </g>
                </g>
            </g>
        </g>
    </g>
</svg>
