<svg xmlns="http://www.w3.org/2000/svg" xmlns:xlink="http://www.w3.org/1999/xlink" width="264px" height="470px" viewBox="0 0 264 470" version="1.1">
    <!-- Generator: Sketch 3.8.3 (29802) - http://www.bohemiancoding.com/sketch -->
    <title>ios_text</title>
    <desc>Created with Sketch.</desc>
    <defs>
        <polygon id="path-1" points="0 0 264 0 264 33 69.2311795 33 0 33"/>
        <filter x="-50%" y="-50%" width="200%" height="200%" filterUnits="objectBoundingBox" id="filter-2">
            <feOffset dx="0" dy="-1" in="SourceAlpha" result="shadowOffsetOuter1"/>
            <feComposite in="shadowOffsetOuter1" in2="SourceAlpha" operator="out" result="shadowOffsetOuter1"/>
            <feColorMatrix values="0 0 0 0 0   0 0 0 0 0   0 0 0 0 0  0 0 0 0.3 0" type="matrix" in="shadowOffsetOuter1"/>
        </filter>
        <rect id="path-3" x="0" y="0" width="264" height="45"/>
        <filter x="-50%" y="-50%" width="200%" height="200%" filterUnits="objectBoundingBox" id="filter-4">
            <feOffset dx="0" dy="1" in="SourceAlpha" result="shadowOffsetOuter1"/>
            <feComposite in="shadowOffsetOuter1" in2="SourceAlpha" operator="out" result="shadowOffsetOuter1"/>
            <feColorMatrix values="0 0 0 0 0   0 0 0 0 0   0 0 0 0 0  0 0 0 0.3 0" type="matrix" in="shadowOffsetOuter1"/>
        </filter>
    </defs>
    <g id="Page-1" stroke="none" stroke-width="1" fill="none" fill-rule="evenodd">
        <g id="ios_text">
            <g id="Group">
                <rect id="Background" fill="#FFFFFF" x="0" y="0" width="263.118441" height="468"/>
                <g id="Message-Detail-Toolbar" transform="translate(0.000000, 437.478261)">
                    <g id="Toolbar-Background">
                        <use fill="black" fill-opacity="1" filter="url(#filter-2)" xlink:href="#path-1"/>
                        <use fill-opacity="0.7" fill="#F6F6F6" fill-rule="evenodd" style="mix-blend-mode: luminosity;" xlink:href="#path-1"/>
                    </g>
                    <g id="Tap-to-Talk-Button" transform="translate(235.000000, 7.000000)">
                        <ellipse id="Tap-to-Talk-Button-Background" fill="#858E98" cx="9.12143928" cy="9.12143928" rx="9.12143928" ry="9.12143928"/>
                        <path d="M9,11.160628 C9.9939,11.160628 10.8,10.3399058 10.8,9.32729469 L10.8,5.35507246 C10.8,4.34276691 9.9939,3.52173913 9,3.52173913 C8.0061,3.52173913 7.2,4.34276691 7.2,5.35507246 L7.2,9.32729469 C7.2,10.3399058 8.0061,11.160628 9,11.160628 Z M11.4,7.49396135 L11.4,9.32729469 L11.4027,9.32729469 C11.4027,10.6579891 10.3542,11.7414891 9.0549,11.7717391 L8.9451,11.7717391 C7.6458,11.7414891 6.5976,10.6579891 6.5976,9.32729469 L6.6,9.32729469 L6.6,7.49396135 L6,7.49396135 L6,9.32729469 L6.0027,9.32729469 C6.0027,10.907628 7.1877,12.2108225 8.7,12.3645169 L8.7,13.910628 L6.9,13.910628 L6.9,14.5217391 L11.1,14.5217391 L11.1,13.910628 L9.3,13.910628 L9.3,12.3645169 C10.8123,12.2105169 11.9973,10.9073225 11.9973,9.32729469 L12,9.32729469 L12,7.49396135 L11.4,7.49396135 Z" id="Tap-to-Talk-Icon" fill="#F7F7F7"/>
                    </g>
                    <g id="Message-Entry-Field" transform="translate(39.000000, 6.000000)">
                        <g id="Message-Entry-Field-Background">
                            <path d="M3.50824588,19.8215892 C1.67062669,19.8215892 0.175412294,18.3263748 0.175412294,16.4887556 L0.175412294,3.50824588 C0.175412294,1.67062669 1.67062669,0.175412294 3.50824588,0.175412294 L182.428786,0.175412294 C184.266405,0.175412294 185.761619,1.67062669 185.761619,3.50824588 L185.761619,16.4887556 C185.761619,18.3263748 184.266405,19.8215892 182.428786,19.8215892 L3.50824588,19.8215892 L3.50824588,19.8215892 Z" id="Shape" fill="#FFFFFF"/>
                            <path d="M182.428786,0.350824588 C184.169928,0.350824588 185.586207,1.76710345 185.586207,3.50824588 L185.586207,16.4887556 C185.586207,18.2298981 184.169928,19.6461769 182.428786,19.6461769 L3.50824588,19.6461769 C1.76710345,19.6461769 0.350824588,18.2298981 0.350824588,16.4887556 L0.350824588,3.50824588 C0.350824588,1.76710345 1.76710345,0.350824588 3.50824588,0.350824588 L182.428786,0.350824588 L182.428786,0.350824588 Z M182.428786,0 L3.50824588,0 C1.57064168,0 0,1.5709925 0,3.50824588 L0,16.4887556 C0,18.4263598 1.57064168,19.9970015 3.50824588,19.9970015 L182.428786,19.9970015 C184.366039,19.9970015 185.937031,18.4263598 185.937031,16.4887556 L185.937031,3.50824588 C185.937031,1.5709925 184.366039,0 182.428786,0 L182.428786,0 L182.428786,0 Z" id="Shape" fill="#C8C8CD"/>
                        </g>
                    </g>
                    <path d="M24.7052,11.6301416 C24.46436,11.6301416 24.23972,11.5127934 24.10616,11.317096 L23.09384,9.83478472 C22.96028,9.63943865 22.73564,9.52173913 22.4948,9.52173913 L17.50556,9.52173913 C17.26472,9.52173913 17.04008,9.63943865 16.90652,9.83478472 L15.8942,11.317096 C15.76064,11.5127934 15.536,11.6301416 15.29516,11.6301416 L12.08,11.6301416 C11.48348,11.6301416 11,12.1023451 11,12.6841672 L11,21.4677136 C11,22.049887 11.48348,22.5217391 12.08,22.5217391 L27.92,22.5217391 C28.51652,22.5217391 29,22.049887 29,21.4677136 L29,12.6841672 C29,12.1023451 28.51652,11.6301416 27.92,11.6301416 L24.7052,11.6301416 Z M19.7706147,21.4021499 C17.546036,21.4021499 15.7361319,19.5925967 15.7361319,17.3676672 C15.7361319,15.1430885 17.546036,13.3331844 19.7706147,13.3331844 C21.9951934,13.3331844 23.8050975,15.1430885 23.8050975,17.3676672 C23.8050975,19.5925967 21.9951934,21.4021499 19.7706147,21.4021499 L19.7706147,21.4021499 Z M25.2961019,13.8657361 C25.2961019,14.2014753 25.0242129,14.4733643 24.6884738,14.4733643 L24.6761949,14.4733643 C24.3404558,14.4733643 24.0685667,14.2014753 24.0685667,13.8657361 L24.0685667,13.8534573 C24.0685667,13.5177181 24.3404558,13.2458291 24.6761949,13.2458291 L24.6884738,13.2458291 C25.0242129,13.2458291 25.2961019,13.5177181 25.2961019,13.8534573 L25.2961019,13.8657361 Z M19.7706147,20.5250885 C21.5144103,20.5250885 22.928036,19.1114628 22.928036,17.3676672 C22.928036,15.6238715 21.5144103,14.2102459 19.7706147,14.2102459 C18.0268191,14.2102459 16.6131934,15.6238715 16.6131934,17.3676672 C16.6131934,19.1114628 18.0268191,20.5250885 19.7706147,20.5250885 Z M13.1049475,10.702 L14.5082459,10.702 L14.5082459,11.4036492 L13.1049475,11.4036492 L13.1049475,10.702 Z" id="Take-or-Send-Photo-or-Video-Button" fill="#858E98"/>
                </g>
                <g id="Message-Detail-Navigation-Bar">
                    <g id="Navigation-Bar-Background">
                        <use fill="black" fill-opacity="1" filter="url(#filter-4)" xlink:href="#path-3"/>
                        <use fill-opacity="0.7" fill="#F6F6F6" fill-rule="evenodd" style="mix-blend-mode: luminosity;" xlink:href="#path-3"/>
                    </g>
                    <polygon id="Back-Button" fill="#007AFF" points="15 23.4285714 13.56 22 6 29.4282143 13.56 37 15 35.5714286 8.88 29.4282143"/>
                </g>
                <g id="Status-Bar">
                    <rect id="Bounds" fill-opacity="0" fill="#000000" x="0" y="0" width="267" height="17.8035982"/>
                    <g id="Battery" transform="translate(237.652000, 4.848576)" fill="#333333">
                        <g transform="translate(0.348000, 0.151424)">
                            <path d="M1.06848613,0.356071964 L1.06848613,0.356071964 C0.674894615,0.356071964 0.356,0.674983001 0.356,1.06870974 L0.356,6.76487347 C0.356,7.15946208 0.673460835,7.47751124 1.06848613,7.47751124 L17.7995139,7.47751124 C18.1931054,7.47751124 18.512,7.15860021 18.512,6.76487347 L18.512,1.06870974 C18.512,0.674121133 18.1945392,0.356071964 17.7995139,0.356071964 L1.06848613,0.356071964 Z M1.06848613,0 L1.06848613,0 L17.7995139,0 C18.3921608,0 18.868,0.47847765 18.868,1.06870974 L18.868,6.76487347 C18.868,7.35534962 18.3896225,7.83358321 17.7995139,7.83358321 L1.06848613,7.83358321 C0.475839243,7.83358321 0,7.35510556 0,6.76487347 L0,1.06870974 C0,0.478233584 0.478377536,0 1.06848613,0 L1.06848613,0 Z" id="Shape"/>
                            <path d="M20.648,3.9167916 C20.648,4.64166301 20.0291037,5.24134063 19.224,5.34107946 L19.224,2.49250375 C20.0291037,2.59224258 20.648,3.1919202 20.648,3.9167916 Z" id="Tip"/>
                            <rect id="Amount" x="0.712" y="0.712143928" width="7.24" height="6.40929535" rx="1"/>
                        </g>
                    </g>
                    <g id="Signal" transform="translate(5.000000, 7.000000)" fill="#333333">
                        <ellipse id="Indicator" cx="2.492" cy="2.49250375" rx="2.492" ry="2.49250375"/>
                        <path d="M8.544,4.9850075 C9.92029366,4.9850075 11.036,3.86907563 11.036,2.49250375 C11.036,1.11593187 9.92029366,0 8.544,0 C7.16770634,0 6.052,1.11593187 6.052,2.49250375 C6.052,3.86907563 7.16770634,4.9850075 8.544,4.9850075 Z" id="Indicator"/>
                        <ellipse id="Indicator" cx="14.596" cy="2.49250375" rx="2.492" ry="2.49250375"/>
                        <path d="M20.648,4.9850075 L20.648,4.9850075 C19.2717063,4.9850075 18.156,3.86907563 18.156,2.49250375 C18.156,1.11593187 19.2717063,0 20.648,0 C22.0242937,0 23.14,1.11593187 23.14,2.49250375 C23.14,3.86907563 22.0242937,4.9850075 20.648,4.9850075 L20.648,4.9850075 Z" id="Indicator"/>
                        <path d="M26.7,4.62893553 L26.7,4.62893553 C27.8796803,4.62893553 28.836,3.67242251 28.836,2.49250375 C28.836,1.31258499 27.8796803,0.356071964 26.7,0.356071964 C25.5203197,0.356071964 24.564,1.31258499 24.564,2.49250375 C24.564,3.67242251 25.5203197,4.62893553 26.7,4.62893553 L26.7,4.62893553 Z M26.7,4.9850075 L26.7,4.9850075 C25.3237063,4.9850075 24.208,3.86907563 24.208,2.49250375 C24.208,1.11593187 25.3237063,0 26.7,0 C28.0762937,0 29.192,1.11593187 29.192,2.49250375 C29.192,3.86907563 28.0762937,4.9850075 26.7,4.9850075 L26.7,4.9850075 Z" id="Empty-Indicator"/>
                    </g>
                    <path d="M65.1442189,6.35385389 C66.8706165,6.35385389 68.4439915,6.98995451 69.6503791,8.03300148 L70.488,7.10804358 C69.0591958,5.86744984 67.1931206,5 65.1442189,5 C63.0984311,5 61.2350249,5.86481588 59.808,7.10145869 L60.6438416,8.02773356 C61.8493395,6.98775954 63.4200455,6.35385389 65.1442189,6.35385389 L65.1442189,6.35385389 Z M65.1442189,9.0238083 C66.1789009,9.0238083 67.1241714,9.39958617 67.853253,10.0185661 L68.7393607,9.03961204 C67.7749624,8.21167156 66.5205328,7.67083239 65.1442189,7.67083239 C63.770574,7.67083239 62.5170341,8.21035458 61.5535254,9.03566111 L62.4382986,10.0159321 C63.1669354,9.39826919 64.1108714,9.0238083 65.1442189,9.0238083 L65.1442189,9.0238083 Z M66.9667005,10.9975201 C66.4733805,10.5879398 65.8381587,10.3043504 65.1437741,10.3043504 C64.450724,10.3043504 63.8163919,10.5875008 63.3230718,10.9953251 L65.1437741,13.0116192 L66.9667005,10.9975201 L66.9667005,10.9975201 Z" id="WiFi" fill="#333333"/>
                </g>
            </g>
        </g>
    </g>
</svg>
